<?xml version="1.0" standalone="no"?><!DOCTYPE svg PUBLIC "-//W3C//DTD SVG 1.1//EN" "http://www.w3.org/Graphics/SVG/1.1/DTD/svg11.dtd"><svg t="1654926475415" class="icon" viewBox="0 0 1024 1024" version="1.1" xmlns="http://www.w3.org/2000/svg" p-id="2258" xmlns:xlink="http://www.w3.org/1999/xlink" width="200" height="200"><defs><style type="text/css">@font-face { font-family: feedback-iconfont; src: url("//at.alicdn.com/t/font_1031158_u69w8yhxdu.woff2?t=1630033759944") format("woff2"), url("//at.alicdn.com/t/font_1031158_u69w8yhxdu.woff?t=1630033759944") format("woff"), url("//at.alicdn.com/t/font_1031158_u69w8yhxdu.ttf?t=1630033759944") format("truetype"); }
</style></defs><path d="M892.689349 309.776276c-5.884011-7.483438-14.134929-12.296047-23.76117-12.296047L249.434979 297.480228l88.696088 307.340807c5.500271 28.190039 29.565363 48.816822 57.06774 48.816822l317.653687 0c24.752754 0 50.879807-16.501836 59.130725-40.565904l123.761722-275.712459c3.437286-8.93858 5.78475-12.817933 0.668219-21.836331L892.689349 309.776276zM954.874643 325.670268 833.175907 628.885104c-14.43885 41.941228-55.004755 89.382727-97.633644 89.382727L385.572566 718.26783c-48.816822 0-98.321306-61.880349-107.947548-111.384833l-92.133374-354.094644L162.801876 144.840806l-75.631538 0c-12.375865 0-22.002107-10.313903-22.002107-22.689768s9.626241-22.689768 22.002107-22.689768l92.821035 0 2.062985 0.687662 4.124947 0.687662 4.124947 1.375324 3.438309 2.750647 2.750647 2.750647 2.062985 3.438309 2.062985 4.124947 0.687662 2.062985 22.689768 121.698736 662.810774 0c23.37743 0 45.379537-1.375324 59.130725 18.563798C958.99959 277.541107 962.437899 302.980499 954.874643 325.670268L954.874643 325.670268z" p-id="2259"></path><path d="M271.437086 855.781764c0-37.816281 30.940686-68.755943 68.755943-68.755943s68.755943 30.940686 68.755943 68.755943c0 37.816281-30.940686 68.755943-68.755943 68.755943S271.437086 893.597021 271.437086 855.781764z" p-id="2260"></path><path d="M683.974793 855.781764c0-37.816281 30.940686-68.755943 68.755943-68.755943 37.816281 0 68.755943 30.940686 68.755943 68.755943 0 37.816281-30.940686 68.755943-68.755943 68.755943C714.914456 924.537707 683.974793 893.597021 683.974793 855.781764z" p-id="2261"></path></svg>